<?xml version="1.0" standalone="no"?>
<!DOCTYPE svg PUBLIC "-//W3C//DTD SVG 20010904//EN"
 "http://www.w3.org/TR/2001/REC-SVG-20010904/DTD/svg10.dtd">
<svg version="1.0" xmlns="http://www.w3.org/2000/svg"
 width="80.000000pt" height="72.000000pt" viewBox="0 0 80.000000 72.000000"
 preserveAspectRatio="xMidYMid meet">

<g transform="translate(0.000000,72.000000) scale(0.100000,-0.100000)"
fill="#000000" stroke="none">
<path d="M167 653 c-4 -3 -7 -17 -7 -29 0 -17 -7 -23 -27 -26 -37 -4 -37 -32
0 -36 38 -5 36 -32 -3 -32 -20 0 -30 -5 -30 -15 0 -10 10 -15 30 -15 20 0 30
-5 30 -15 0 -10 -10 -15 -30 -15 -20 0 -30 -5 -30 -15 0 -10 10 -15 30 -15 39
0 41 -27 3 -32 -17 -2 -28 -9 -28 -18 0 -9 11 -16 28 -18 39 -5 36 -32 -4 -32
-38 0 -35 -24 4 -28 35 -4 35 -30 0 -34 -36 -4 -36 -22 0 -26 37 -4 34 -28 -4
-36 -37 -7 -34 -30 4 -34 39 -5 35 -32 -4 -32 -38 0 -35 -24 4 -28 20 -2 27
-10 29 -30 4 -36 32 -36 36 1 5 38 32 36 32 -3 0 -20 5 -30 15 -30 10 0 15 10
15 30 0 20 5 30 15 30 10 0 15 -10 15 -30 0 -20 5 -30 15 -30 10 0 15 10 15
30 0 39 27 41 32 3 4 -37 32 -37 36 0 5 38 32 36 32 -3 0 -20 5 -30 15 -30 10
0 15 10 15 30 0 20 5 30 15 30 10 0 15 -10 15 -30 0 -20 5 -30 15 -30 10 0 15
10 15 30 0 39 27 41 32 3 4 -37 32 -37 36 -1 4 37 18 35 26 -3 7 -37 30 -34
34 4 3 22 8 27 33 27 19 0 29 5 29 15 0 10 -10 15 -30 15 -39 0 -41 27 -2 32
16 2 27 9 27 18 0 9 -11 16 -27 18 -39 5 -37 32 2 32 20 0 30 5 30 15 0 10
-10 15 -30 15 -20 0 -30 5 -30 15 0 10 10 15 30 15 20 0 30 5 30 15 0 10 -10
15 -30 15 -40 0 -39 26 1 34 37 7 34 30 -4 34 -39 5 -35 32 4 32 38 0 35 24
-4 28 -34 4 -35 30 -2 34 14 2 26 8 26 13 0 6 -12 11 -26 13 -35 5 -31 28 6
36 37 7 34 30 -4 34 -20 2 -27 10 -29 30 -4 36 -32 36 -36 0 -4 -37 -18 -35
-26 3 -7 37 -30 34 -34 -4 -5 -38 -32 -35 -32 3 0 20 -5 30 -15 30 -10 0 -15
-10 -15 -30 0 -38 -27 -41 -32 -3 -4 39 -28 42 -28 4 0 -41 -25 -41 -34 0 -7
37 -30 34 -34 -4 -5 -38 -32 -35 -32 3 0 20 -5 30 -15 30 -10 0 -15 -10 -15
-30 0 -38 -27 -41 -32 -3 -4 39 -28 42 -28 4 0 -41 -25 -41 -33 -1 -6 29 -17
37 -30 23z m433 -288 l0 -205 -200 0 -200 0 0 205 0 205 200 0 200 0 0 -205z"/>
<path d="M280 360 l0 -120 120 0 120 0 0 120 0 120 -120 0 -120 0 0 -120z m50
86 c0 -3 -4 -8 -10 -11 -5 -3 -10 -1 -10 4 0 6 5 11 10 11 6 0 10 -2 10 -4z
m35 -36 c-21 -22 -41 -37 -44 -35 -6 7 60 75 73 75 6 0 -7 -18 -29 -40z m25
-35 c-41 -41 -77 -75 -79 -75 -3 0 28 34 69 75 41 41 77 75 79 75 3 0 -28 -34
-69 -75z m30 -30 c-41 -41 -77 -75 -79 -75 -3 0 28 34 69 75 41 41 77 75 79
75 3 0 -28 -34 -69 -75z m35 -35 c-21 -22 -41 -37 -44 -35 -2 3 13 23 34 45
21 22 41 37 44 35 2 -3 -13 -23 -34 -45z m35 -30 c0 -5 -5 -10 -11 -10 -5 0
-7 5 -4 10 3 6 8 10 11 10 2 0 4 -4 4 -10z"/>
</g>
</svg>
